# xmcd
# 
# Track frame offsets:
#     150
#     22266
#     44648
#     65110
#     84461
#     98861
#     117609
#     130656
#     144680
#     160969
#     179968
#     255195
#     286652
# 
# Disc length: 4796
# 
# Revision: 0
# Processed by: cddbd v1.5.2PL0 Copyright (c) Steve Scherf et al.
# Submitted via: fre:ac v1.0.17
# 
DISCID=c612ba0d
DTITLE=Cream - Wheels Of Fire
DYEAR=0
DGENRE=
TTITLE0=White Room
TTITLE1=Sitting On Top Of The World
TTITLE2=Passing The Time
TTITLE3=As You Said
TTITLE4=Pressed Rat And Warthog
TTITLE5=Politican
TTITLE6=Those Where The Days
TTITLE7=Born Under A Bad Sign
TTITLE8=Deserted Cities Af The Heart
TTITLE9=Crossroads
TTITLE10=Spoonful
TTITLE11=Traintime
TTITLE12=Toad
EXTD=
EXTT0=
EXTT1=
EXTT2=
EXTT3=
EXTT4=
EXTT5=
EXTT6=
EXTT7=
EXTT8=
EXTT9=
EXTT10=
EXTT11=
EXTT12=
PLAYORDER=
